<svg xmlns="http://www.w3.org/2000/svg" viewBox="-2.0 23.09 526.64 100.48"><path d="M31.87 25.09h14.78v70.55a97.5 97.5 0 01-19.2 2C9.41 97.66 0 89.5 0 73.85 0 58.78 10 49 25.44 49a23.47 23.47 0 016.43.77zM31.87 61.66a14.83 14.83 0 00-5-.77c-7.49 0-11.81 4.61-11.81 12.68 0 7.87 4.13 12.19 11.71 12.19a34.27 34.27 0 005.09-.39zM74.88 50.05v34.27c0 11.8-.87 17.47-3.46 22.36-2.4 4.71-5.57 7.68-12.09 10.95L45.6 111.1c6.53-3.07 9.69-5.76 11.71-9.89s2.78-9.12 2.78-22V50.05zM88.8 53.41A44.45 44.45 0 01108.38 49c7.58 0 12.57 2 14.78 5.95 1.25 2.21 1.63 5.09 1.63 11.23v30.04a162.5 162.5 0 01-21.11 1.63c-12.39 0-18-4.32-18-13.92 0-10.36 7.4-15.16 25.54-16.7V64c0-2.69-1.34-3.65-5.09-3.65a38.64 38.64 0 00-17.33 4.48zM111.93 76.93c-9.79 1-13 2.49-13 6.33 0 2.88 1.83 4.22 5.86 4.22a40.71 40.71 0 007.1-.67zM136.8 52.35A88.76 88.76 0 01160 49c7.58 0 13.05 1.73 16.32 5.09 3.07 3.17 4 6.62 4 14v29h-14.73V68.67c0-5.66-1.92-7.78-7.2-7.78a22.37 22.37 0 00-6.81 1.11v35.08H136.8zM190.46 105.15a33.61 33.61 0 0015.84 3.93c9.69 0 13.82-3.93 13.82-13.34v-.29a20.22 20.22 0 01-9.6 2c-13 0-21.21-8.55-21.21-22.08 0-16.8 12.19-26.3 33.79-26.3a93.27 93.27 0 0119.29 2.11v11.63a75.48 75.48 0 00-8.39-1.34V63l.19 6.24.1 8.06c.09 2 .09 4 .19 6v4c0 12.67-1.06 18.62-4.22 23.52-4.61 7.2-12.58 10.75-23.91 10.75a42.4 42.4 0 01-15.93-2.88zM219.83 61.0h-1.53a16.15 16.15 0 00-8.55 2.11c-3.55 2-5.37 5.67-5.37 10.85 0 7.39 3.65 11.61 10.17 11.61a18.2 18.2 0 005.57-1v-5.05c0-1.73-.09-3.65-.09-5.67l-.1-6.81-.1-4.9zM271.48 48.8c14.78 0 23.81 9.31 23.81 24.38 0 15.46-9.41 25.15-24.39 25.15-14.78 0-23.9-9.33-23.9-24.28 0-15.56 9.41-25.25 24.48-25.25zM271.19 86.43c5.67 0 9-4.7 9-12.86S277 60.7 271.29 60.7c-5.86 0-9.22 4.71-9.22 12.87s3.36 12.86 9.12 12.86zM342.33 63.68a18.46 18.46 0 00-10.27-2.88c-8.55 0-14.31 4.7-14.31 12.09 0 7.68 5.67 12.58 14.31 12.58a20.89 20.89 0 0010.75-2.79v12a29.37 29.37 0 01-14.5 3.32c-15.74 0-25.63-9.21-25.63-23.9 0-15.07 10.85-25.24 26.78-25.24a29.06 29.06 0 0112.87 2.78zM373.05 48.8c14.78 0 23.8 9.31 23.8 24.38 0 15.46-9.4 25.15-24.38 25.15-14.78 0-23.9-9.31-23.9-24.28 0-15.56 9.43-25.25 24.48-25.25zM372.76 86.43c5.66 0 9-4.7 9-12.86s-3.26-12.87-8.93-12.87c-5.85 0-9.21 4.71-9.21 12.87s3.38 12.86 9.14 12.86zM406.94 52.35A88.76 88.76 0 01430.17 49c7.58 0 13.05 1.73 16.32 5.09 3.07 3.17 4 6.62 4 14v29h-14.76V68.67c0-5.66-1.92-7.78-7.2-7.78a22.37 22.37 0 00-6.81 1.11v35.08h-14.78zM459.64 88.3h8.5v8.78h-8.5zM480.47 87.43c.24 2.93 2.5 4.52 6.39 4.52a14.14 14.14 0 007.87-2.26v5.71a18.75 18.75 0 01-8.93 2.21c-7.87 0-12.48-4.51-12.48-12.19S478 73 485.18 73C492 73 496 77.35 496 85c0 .38 0 1-.05 1.87l-.05.52zM489.21 82.3c-.24-2.69-1.63-4.13-4-4.13a4.47 4.47 0 00-4.61 4.13zM508.46 73.56V87.1c0 3 .86 4 3.79 4a16 16 0 003-.33V73.56h7.39v22.66l-.91.14a52.47 52.47 0 01-9.84 1c-4 0-6.72-.77-8.45-2.35s-2.4-3.65-2.4-8V73.56zM60.09 25.09h14.78v15.17H60.09z" fill="#000000"/></svg>